<svg width="78" height="80" viewBox="0 0 78 80" fill="none" xmlns="http://www.w3.org/2000/svg">
<rect width="78" height="80" fill="#F6F7F6"/>
<path d="M57.8899 1.60988L25.4625 0L4 42.0053L44.7397 54L45.418 53.7258L78 40.6091L57.8899 1.60988ZM29.7978 45.2657L29.6995 44.8786L25.5174 28.555L18.2592 41.8703L10.0009 39.4389L26.753 6.65148L41.9825 48.8553L29.7978 45.2657ZM45.3121 49.2864L29.0931 4.34064L55.2694 5.64132L72.1948 38.4627L45.3121 49.2864Z" fill="#4B5049"/>
<path d="M29.0421 70.9224L11.6389 67.259C10.5128 67.0224 9.40714 67.3296 9.16733 67.9461C8.92753 68.5626 9.64407 69.2546 10.7693 69.4912L28.1725 73.1546C29.2977 73.3918 30.4033 73.0839 30.6431 72.4667C30.8838 71.851 30.1663 71.159 29.0421 70.9224Z" fill="#4B5049"/>
<path d="M27.9782 67.0091L20.3379 68.6179L27.3597 70.0957L29.0428 69.7412C30.1671 69.5053 30.8407 68.7009 30.5468 67.9465C30.2529 67.1922 29.1034 66.7732 27.9782 67.0091Z" fill="#4B5049"/>
<path d="M10.5741 70.6718C9.44892 70.9084 8.77435 71.7128 9.06921 72.4665C9.36407 73.2215 10.5126 73.6405 11.6387 73.4039L19.377 71.7752L12.3543 70.2974L10.5741 70.6718Z" fill="#4B5049"/>
<mask id="path-5-inside-1_254_211" fill="white">
<path d="M21.5493 67.811C23.0071 67.5331 23.7656 67.2138 25.3856 66.14C28.3058 63.9925 28.7381 60.5546 26.8995 56.2783C26.8758 56.2212 26.5749 55.5616 26.0848 56.1256C25.7649 56.4915 23.6935 58.1688 23.2161 57.8093C23.4568 56.6453 22.2802 54.1808 21.4409 54.0107C20.6048 53.8389 20.3062 55.7609 16.6307 57.6293C13.1713 59.1015 11.1332 61.6971 12.3581 64.44C13.5791 67.1824 17.7487 68.534 21.5493 67.811ZM19.1066 60.0006C20.1763 59.4279 21.0521 58.9268 21.0521 58.9268C21.0521 58.9268 21.8289 60.1433 21.5391 61.2526C22.5122 61.1803 23.4362 60.6082 23.4362 60.6082C23.4362 60.6082 24.7007 63.0785 22.6088 64.9749C20.3728 67.0017 16.3338 66.2275 15.7502 64.045C15.1769 61.901 18.0361 60.5727 19.1066 60.0006Z"/>
</mask>
<path d="M21.5493 67.811C23.0071 67.5331 23.7656 67.2138 25.3856 66.14C28.3058 63.9925 28.7381 60.5546 26.8995 56.2783C26.8758 56.2212 26.5749 55.5616 26.0848 56.1256C25.7649 56.4915 23.6935 58.1688 23.2161 57.8093C23.4568 56.6453 22.2802 54.1808 21.4409 54.0107C20.6048 53.8389 20.3062 55.7609 16.6307 57.6293C13.1713 59.1015 11.1332 61.6971 12.3581 64.44C13.5791 67.1824 17.7487 68.534 21.5493 67.811ZM19.1066 60.0006C20.1763 59.4279 21.0521 58.9268 21.0521 58.9268C21.0521 58.9268 21.8289 60.1433 21.5391 61.2526C22.5122 61.1803 23.4362 60.6082 23.4362 60.6082C23.4362 60.6082 24.7007 63.0785 22.6088 64.9749C20.3728 67.0017 16.3338 66.2275 15.7502 64.045C15.1769 61.901 18.0361 60.5727 19.1066 60.0006Z" fill="#E5E7E4"/>
<path d="M21.5493 67.811L22.6707 73.7053L22.6729 73.7048L21.5493 67.811ZM25.3856 66.14L28.7004 71.1413L28.8224 71.0604L28.9403 70.9737L25.3856 66.14ZM26.8995 56.2783L21.3604 58.5844L21.3737 58.6163L21.3874 58.6481L26.8995 56.2783ZM26.0848 56.1256L30.6017 60.0749L30.6076 60.0682L30.6135 60.0614L26.0848 56.1256ZM23.2161 57.8093L17.3404 56.5943L16.5708 60.3163L19.607 62.6025L23.2161 57.8093ZM21.4409 54.0107L20.2329 59.8879L20.241 59.8895L20.2491 59.8912L21.4409 54.0107ZM16.6307 57.6293L18.9802 63.1502L19.1678 63.0703L19.3496 62.9779L16.6307 57.6293ZM12.3581 64.44L17.8394 61.9996L17.8367 61.9935L12.3581 64.44ZM19.1066 60.0006L21.9346 65.2923L21.9386 65.2902L19.1066 60.0006ZM21.0521 58.9268L26.1091 55.6978L23.0333 50.8807L18.0725 53.719L21.0521 58.9268ZM21.5391 61.2526L15.7339 59.7359L13.612 67.8578L21.9834 67.2361L21.5391 61.2526ZM23.4362 60.6082L28.7772 57.8743L25.8116 52.0809L20.2779 55.5068L23.4362 60.6082ZM22.6088 64.9749L26.6384 69.4203L26.6386 69.4202L22.6088 64.9749ZM15.7502 64.045L21.5466 62.4951L21.5466 62.4951L15.7502 64.045ZM22.6729 73.7048C23.6508 73.5184 24.6702 73.2653 25.7914 72.7797C26.8507 72.3208 27.7909 71.744 28.7004 71.1413L22.0708 61.1388C21.3602 61.6098 21.1112 61.7295 21.0218 61.7683C20.9943 61.7802 20.9056 61.8256 20.4257 61.9171L22.6729 73.7048ZM28.9403 70.9737C31.6385 68.9894 33.3788 66.1906 33.8639 62.8762C34.3205 59.7558 33.5991 56.6701 32.4117 53.9084L21.3874 58.6481C22.0386 60.1627 22.0202 60.9342 21.9903 61.1387C21.9794 61.2136 21.9707 61.2022 21.9933 61.1653C22.0136 61.132 21.9932 61.1871 21.8309 61.3064L28.9403 70.9737ZM32.4387 53.9722C32.3669 53.7999 31.7664 52.2598 30.1984 51.1183C29.1967 50.3891 27.5069 49.6317 25.4094 49.9885C23.4567 50.3206 22.2005 51.4482 21.5561 52.1898L30.6135 60.0614C30.2141 60.521 29.1793 61.5196 27.4216 61.8186C25.5191 62.1422 23.998 61.4475 23.1357 60.8198C22.3667 60.2599 21.9477 59.6504 21.7826 59.3933C21.5909 59.0949 21.4583 58.8194 21.3604 58.5844L32.4387 53.9722ZM21.5678 52.1763C21.6847 52.0426 21.7743 51.9541 21.7994 51.9295C21.818 51.9112 21.8318 51.8981 21.8397 51.8906C21.8478 51.883 21.8524 51.8789 21.853 51.8783C21.8536 51.8777 21.845 51.8856 21.8264 51.9016C21.8083 51.9171 21.7843 51.9375 21.7548 51.9618C21.6246 52.0689 21.4676 52.1881 21.3344 52.2788C21.1488 52.405 21.2155 52.3365 21.4875 52.2216C21.6067 52.1713 22.0718 51.978 22.7587 51.8967C23.356 51.8261 25.1123 51.7264 26.8252 53.0162L19.607 62.6025C21.4392 63.9821 23.3647 63.9087 24.168 63.8137C25.0608 63.7081 25.7684 63.4398 26.154 63.2771C26.9587 62.9374 27.6527 62.4941 28.0846 62.2002C28.8502 61.6793 29.9414 60.8302 30.6017 60.0749L21.5678 52.1763ZM29.0918 59.0243C29.3998 57.535 29.1859 56.2033 29.0115 55.4293C28.8126 54.5469 28.505 53.7094 28.1609 52.9793C27.8246 52.2657 27.3583 51.4529 26.7409 50.7019C26.3458 50.2213 24.9831 48.6067 22.6327 48.1303L20.2491 59.8912C19.1552 59.6695 18.4333 59.179 18.116 58.9356C17.7655 58.6667 17.5569 58.4267 17.4715 58.3228C17.3032 58.1181 17.2735 58.026 17.3061 58.0953C17.331 58.1481 17.3249 58.1555 17.3051 58.0679C17.294 58.0186 17.2666 57.8852 17.2542 57.6792C17.2427 57.4884 17.2355 57.1015 17.3404 56.5943L29.0918 59.0243ZM22.6488 48.1336C19.587 47.5043 17.4898 49.1877 16.8094 49.8086C16.4638 50.1239 16.1791 50.4419 16.0538 50.5816C15.8664 50.7905 15.8139 50.8527 15.6895 50.9877C15.4184 51.2817 14.9774 51.739 13.9118 52.2807L19.3496 62.9779C20.6172 62.3335 21.6598 61.65 22.5321 60.9617C23.4087 60.2699 24.0494 59.6235 24.5116 59.1222C24.7065 58.9108 24.9289 58.6587 24.9874 58.5934C25.108 58.459 25.0401 58.5431 24.8975 58.6732C24.7641 58.7949 24.2677 59.2389 23.4537 59.5782C22.4953 59.9778 21.3681 60.1212 20.2329 59.8879L22.6488 48.1336ZM14.2812 52.1085C11.8811 53.1299 9.39786 54.767 7.75526 57.2154C5.95002 59.9061 5.33066 63.418 6.87956 66.8865L17.8367 61.9935C17.9424 62.2302 18.0376 62.6251 17.9854 63.0921C17.9359 63.5349 17.7805 63.8112 17.7203 63.9009C17.6694 63.9768 17.702 63.9008 17.9287 63.7309C18.1499 63.5652 18.4951 63.3566 18.9802 63.1502L14.2812 52.1085ZM6.87683 66.8804C8.37795 70.252 11.363 72.1546 13.9868 73.082C16.6898 74.0375 19.7612 74.2588 22.6707 73.7053L20.428 61.9167C19.5368 62.0862 18.6231 61.9932 17.9859 61.768C17.2695 61.5148 17.5593 61.3704 17.8394 61.9996L6.87683 66.8804ZM21.9386 65.2902C22.5126 64.9829 23.031 64.6968 23.4049 64.488C23.5927 64.3832 23.7459 64.2969 23.8537 64.2359C23.9076 64.2053 23.9503 64.1811 23.9804 64.164C23.9955 64.1554 24.0074 64.1486 24.016 64.1437C24.0203 64.1412 24.0238 64.1392 24.0264 64.1377C24.0277 64.137 24.0288 64.1364 24.0297 64.1358C24.0302 64.1356 24.0305 64.1354 24.0309 64.1352C24.0311 64.1351 24.0312 64.135 24.0314 64.1349C24.0314 64.1349 24.0315 64.1348 24.0316 64.1348C24.0316 64.1347 24.0317 64.1347 21.0521 58.9268C18.0725 53.719 18.0726 53.7189 18.0727 53.7189C18.0727 53.7188 18.0728 53.7188 18.0728 53.7188C18.0729 53.7187 18.073 53.7187 18.073 53.7187C18.0732 53.7186 18.0732 53.7185 18.0732 53.7185C18.0733 53.7185 18.0731 53.7186 18.0727 53.7188C18.072 53.7192 18.0704 53.7201 18.0681 53.7215C18.0633 53.7242 18.0554 53.7287 18.0444 53.735C18.0224 53.7475 17.9883 53.7669 17.9434 53.7923C17.8536 53.8431 17.721 53.9178 17.5561 54.0099C17.2248 54.1948 16.7704 54.4456 16.2747 54.7109L21.9386 65.2902ZM21.0521 58.9268C15.9951 62.1558 15.9942 62.1544 15.9933 62.153C15.993 62.1525 15.992 62.1511 15.9914 62.1501C15.9902 62.1482 15.989 62.1463 15.9879 62.1445C15.9855 62.1407 15.9831 62.137 15.9808 62.1334C15.9762 62.1261 15.9718 62.119 15.9674 62.1121C15.9588 62.0983 15.9507 62.0851 15.9431 62.0727C15.9278 62.0478 15.9144 62.0254 15.9026 62.0051C15.8793 61.9651 15.8606 61.9312 15.8452 61.9016C15.8182 61.8495 15.786 61.782 15.7531 61.6898C15.7412 61.6563 15.4354 60.8784 15.7339 59.7359L27.3442 62.7692C27.9325 60.5175 27.3833 58.5768 27.0554 57.6577C26.8646 57.1227 26.6563 56.6817 26.4927 56.3669C26.409 56.2059 26.3319 56.0683 26.2672 55.9574C26.2347 55.9017 26.2049 55.852 26.1785 55.8088C26.1652 55.7872 26.1528 55.7671 26.1412 55.7486C26.1354 55.7393 26.1299 55.7305 26.1245 55.722C26.1218 55.7178 26.1192 55.7137 26.1167 55.7096C26.1154 55.7076 26.1141 55.7056 26.1129 55.7036C26.1122 55.7027 26.1113 55.7012 26.111 55.7007C26.1101 55.6993 26.1091 55.6978 21.0521 58.9268ZM21.9834 67.2361C23.4048 67.1306 24.5728 66.6956 25.2282 66.413C25.5911 66.2565 25.894 66.1038 26.1184 65.9831C26.232 65.922 26.3295 65.867 26.4088 65.8209C26.4485 65.7978 26.484 65.7768 26.515 65.7582C26.5305 65.7489 26.5449 65.7402 26.5581 65.7321C26.5648 65.728 26.5711 65.7241 26.5772 65.7204C26.5802 65.7185 26.5832 65.7167 26.5861 65.7149C26.5875 65.714 26.589 65.7132 26.5904 65.7123C26.5911 65.7118 26.5921 65.7112 26.5925 65.711C26.5935 65.7103 26.5946 65.7097 23.4362 60.6082C20.2779 55.5068 20.2789 55.5061 20.28 55.5055C20.2803 55.5053 20.2813 55.5047 20.282 55.5042C20.2834 55.5034 20.2847 55.5026 20.286 55.5017C20.2887 55.5001 20.2913 55.4985 20.2939 55.4969C20.2991 55.4937 20.3041 55.4906 20.309 55.4877C20.3187 55.4817 20.3278 55.4762 20.3363 55.4711C20.3532 55.461 20.3679 55.4523 20.3805 55.445C20.4054 55.4305 20.4231 55.4207 20.4349 55.4144C20.4556 55.4033 20.4667 55.3981 20.4769 55.3937C20.4841 55.3906 20.5239 55.3733 20.599 55.3519C20.6683 55.3321 20.839 55.2881 21.0947 55.2691L21.9834 67.2361ZM23.4362 60.6082C18.0953 63.3422 18.094 63.3396 18.0927 63.3371C18.0923 63.3363 18.091 63.3337 18.0901 63.332C18.0884 63.3287 18.0867 63.3253 18.085 63.322C18.0817 63.3154 18.0784 63.3088 18.0751 63.3024C18.0686 63.2895 18.0624 63.2769 18.0564 63.2648C18.0444 63.2404 18.0334 63.2174 18.0231 63.1957C18.0027 63.1524 17.9853 63.1135 17.9703 63.0786C17.941 63.01 17.9187 62.9509 17.9011 62.8974C17.8708 62.8051 17.832 62.6628 17.8192 62.4632C17.8058 62.2537 17.8175 61.9074 17.9619 61.4979C18.1181 61.0547 18.3656 60.723 18.579 60.5295L26.6386 69.4202C29.3288 66.9815 29.9384 63.945 29.7948 61.6976C29.7274 60.6434 29.5032 59.765 29.3011 59.1503C29.1977 58.8356 29.093 58.5687 29.0026 58.3575C28.9572 58.2514 28.9147 58.1576 28.8767 58.0772C28.8577 58.0369 28.8398 57.9998 28.8232 57.966C28.8149 57.9491 28.8069 57.933 28.7992 57.9177C28.7953 57.9101 28.7916 57.9026 28.7879 57.8954C28.7861 57.8918 28.7843 57.8882 28.7825 57.8847C28.7816 57.8829 28.7802 57.8803 28.7798 57.8794C28.7785 57.8768 28.7772 57.8743 23.4362 60.6082ZM18.5792 60.5294C19.0677 60.0866 19.4409 60.1533 19.4868 60.1605C19.5552 60.1712 19.8246 60.2212 20.2002 60.4847C20.5912 60.7591 21.2521 61.3939 21.5466 62.4951L9.95386 65.5949C11.128 69.986 15.162 71.63 17.6328 72.0164C20.4032 72.4496 23.9139 71.89 26.6384 69.4203L18.5792 60.5294ZM21.5466 62.4951C21.6602 62.92 21.7059 63.4016 21.6533 63.904C21.6015 64.399 21.4647 64.8167 21.3137 65.1383C21.167 65.451 21.0113 65.6646 20.9124 65.7848C20.8137 65.9049 20.7443 65.9651 20.7357 65.9726C20.7343 65.9738 20.8255 65.8992 21.0687 65.7576C21.3541 65.5915 21.4956 65.5269 21.9346 65.2923L16.2787 54.7088C16.0574 54.8271 14.3034 55.6709 12.8883 56.8941C11.4844 58.1076 8.77028 61.1686 9.95386 65.5949L21.5466 62.4951Z" fill="#4B5049" mask="url(#path-5-inside-1_254_211)"/>
</svg>
