<svg width="92" height="92" viewBox="0 0 92 92" fill="none" xmlns="http://www.w3.org/2000/svg">
<rect width="92" height="92" fill="#F6F7F6"/>
<path d="M65.9588 14.9595L34.919 13.4167L14.375 53.6719L53.3714 65.1667L54.0206 64.904L85.2083 52.3338L65.9588 14.9595ZM39.0689 56.7964L38.9748 56.4254L34.9716 40.782L28.024 53.5425L20.1191 51.2123L36.1543 19.7911L50.7321 60.2364L39.0689 56.7964ZM53.9192 60.6496L38.3943 17.5765L63.4505 18.823L79.6515 50.2769L53.9192 60.6496Z" fill="#4B5049"/>
<path d="M30.7048 76.588L14.0288 73.0782C12.9497 72.8515 11.8903 73.1458 11.6605 73.7365C11.4307 74.3272 12.1173 74.9901 13.1955 75.2168L29.8716 78.7266C30.9498 78.9539 32.0091 78.6589 32.2389 78.0676C32.4696 77.4776 31.7821 76.8147 30.7048 76.588Z" fill="#4B5049"/>
<path d="M29.6844 72.8384L22.3633 74.3797L29.0916 75.7956L30.7045 75.4559C31.7818 75.2299 32.4272 74.4592 32.1456 73.7365C31.864 73.0138 30.7626 72.6124 29.6844 72.8384Z" fill="#4B5049"/>
<path d="M13.0084 76.3482C11.9302 76.5749 11.2838 77.3456 11.5663 78.0677C11.8489 78.791 12.9494 79.1925 14.0284 78.9658L21.4434 77.4054L14.7142 75.9895L13.0084 76.3482Z" fill="#4B5049"/>
<mask id="path-5-inside-1_222_239" fill="white">
<path d="M23.5253 73.607C24.9222 73.3407 25.649 73.0348 27.2013 72.0061C29.9995 69.9486 30.4137 66.6548 28.652 62.5577C28.6292 62.5031 28.3409 61.8712 27.8713 62.4115C27.5647 62.7621 25.5799 64.369 25.1225 64.0246C25.3531 62.9094 24.2256 60.5483 23.4214 60.3853C22.6202 60.2206 22.3342 62.0621 18.8122 63.8522C15.4974 65.2627 13.5445 67.7494 14.7182 70.3773C15.8881 73.0047 19.8835 74.2997 23.5253 73.607ZM21.1847 66.124C22.2097 65.5753 23.0489 65.0953 23.0489 65.0953C23.0489 65.0953 23.7932 66.2608 23.5155 67.3235C24.4479 67.2543 25.3334 66.7062 25.3334 66.7062C25.3334 66.7062 26.5451 69.0729 24.5405 70.8898C22.3979 72.8317 18.5277 72.0899 17.9685 69.9989C17.4192 67.9448 20.1589 66.6721 21.1847 66.124Z"/>
</mask>
<path d="M23.5253 73.607C24.9222 73.3407 25.649 73.0348 27.2013 72.0061C29.9995 69.9486 30.4137 66.6548 28.652 62.5577C28.6292 62.5031 28.3409 61.8712 27.8713 62.4115C27.5647 62.7621 25.5799 64.369 25.1225 64.0246C25.3531 62.9094 24.2256 60.5483 23.4214 60.3853C22.6202 60.2206 22.3342 62.0621 18.8122 63.8522C15.4974 65.2627 13.5445 67.7494 14.7182 70.3773C15.8881 73.0047 19.8835 74.2997 23.5253 73.607ZM21.1847 66.124C22.2097 65.5753 23.0489 65.0953 23.0489 65.0953C23.0489 65.0953 23.7932 66.2608 23.5155 67.3235C24.4479 67.2543 25.3334 66.7062 25.3334 66.7062C25.3334 66.7062 26.5451 69.0729 24.5405 70.8898C22.3979 72.8317 18.5277 72.0899 17.9685 69.9989C17.4192 67.9448 20.1589 66.6721 21.1847 66.124Z" fill="#E5E7E4"/>
<path d="M23.5253 73.607L24.6465 79.5013L24.6488 79.5009L23.5253 73.607ZM27.2013 72.0061L30.5158 77.0075L30.6378 76.9267L30.7557 76.84L27.2013 72.0061ZM28.652 62.5577L23.113 64.8641L23.1263 64.8961L23.14 64.9279L28.652 62.5577ZM27.8713 62.4115L32.3879 66.3611L32.3938 66.3544L32.3997 66.3476L27.8713 62.4115ZM25.1225 64.0246L19.2468 62.8095L18.477 66.5318L21.5136 68.818L25.1225 64.0246ZM23.4214 60.3853L22.2136 66.2625L22.2217 66.2641L22.2298 66.2658L23.4214 60.3853ZM18.8122 63.8522L21.1615 69.3731L21.3491 69.2933L21.5308 69.2009L18.8122 63.8522ZM14.7182 70.3773L20.1993 67.9366L20.1966 67.9305L14.7182 70.3773ZM21.1847 66.124L24.0123 71.4159L24.0163 71.4138L21.1847 66.124ZM23.0489 65.0953L28.1057 61.8659L25.0299 57.0496L20.0696 59.8872L23.0489 65.0953ZM23.5155 67.3235L17.7104 65.8067L15.5881 73.9286L23.9597 73.3071L23.5155 67.3235ZM25.3334 66.7062L30.6741 63.9719L27.7086 58.1794L22.1754 61.6045L25.3334 66.7062ZM24.5405 70.8898L28.5698 75.3355L28.57 75.3354L24.5405 70.8898ZM17.9685 69.9989L23.7648 68.4488L23.7648 68.4488L17.9685 69.9989ZM24.6488 79.5009C25.5962 79.3203 26.5923 79.0735 27.6895 78.5983C28.7248 78.1499 29.6401 77.5878 30.5158 77.0075L23.8869 67.0046C23.2101 67.4531 22.9859 67.5583 22.9205 67.5866C22.917 67.5882 22.8513 67.6274 22.4019 67.7131L24.6488 79.5009ZM30.7557 76.84C33.3928 74.9009 35.0984 72.1606 35.5734 68.9157C36.0199 65.8647 35.313 62.8597 34.164 60.1876L23.14 64.9279C23.7527 66.3528 23.7195 67.0433 23.6999 67.1779C23.694 67.2178 23.6967 67.1743 23.737 67.1084C23.7751 67.0461 23.7787 67.0753 23.647 67.1722L30.7557 76.84ZM34.191 60.2514C34.1197 60.0802 33.5225 58.5477 31.9602 57.4105C30.9614 56.6835 29.2753 55.9277 27.1822 56.2836C25.2338 56.615 23.9823 57.7397 23.3428 58.4753L32.3997 66.3476C31.9951 66.8132 30.9557 67.8142 29.1942 68.1138C27.2879 68.438 25.7634 67.7422 24.8982 67.1124C24.1263 66.5506 23.7049 65.9382 23.5381 65.6785C23.3448 65.3775 23.2111 65.0998 23.113 64.8641L34.191 60.2514ZM23.3546 58.4619C23.4724 58.3272 23.5631 58.2376 23.5895 58.2116C23.6259 58.1759 23.6472 58.1565 23.648 58.1559C23.6491 58.1548 23.6207 58.1804 23.5632 58.2278C23.4433 58.3264 23.299 58.4359 23.1787 58.5177C23.006 58.6352 23.0857 58.5588 23.3689 58.4393C23.4937 58.3866 23.9637 58.1918 24.6548 58.1101C25.2563 58.039 27.0159 57.9398 28.7313 59.2313L21.5136 68.818C23.3434 70.1956 25.2651 70.1215 26.0639 70.0271C26.9523 69.922 27.6548 69.6554 28.0348 69.4951C28.8283 69.1601 29.5092 68.7247 29.9282 68.4396C30.668 67.9363 31.7343 67.1087 32.3879 66.3611L23.3546 58.4619ZM30.9981 65.2398C31.3036 63.7625 31.0909 62.4462 30.9202 61.6889C30.725 60.8231 30.4237 60.0033 30.0873 59.2896C29.7586 58.5923 29.3015 57.7946 28.6934 57.0551C28.3075 56.5859 26.9545 54.9793 24.6131 54.5048L22.2298 66.2658C21.1317 66.0432 20.4052 65.5505 20.0832 65.3035C19.728 65.0311 19.5147 64.7863 19.4245 64.6766C19.2468 64.4605 19.2079 64.3533 19.2328 64.4061C19.2499 64.4425 19.2375 64.4322 19.214 64.3279C19.2009 64.2702 19.1723 64.1287 19.1594 63.9151C19.1475 63.7167 19.1406 63.3228 19.2468 62.8095L30.9981 65.2398ZM24.6292 54.5081C21.5765 53.8808 19.4869 55.56 18.8148 56.1732C18.4734 56.4846 18.1932 56.7976 18.0731 56.9316C17.8908 57.1348 17.8441 57.1905 17.7263 57.3181C17.4819 57.5831 17.0825 58.0008 16.0936 58.5034L21.5308 69.2009C22.76 68.5762 23.773 67.9124 24.622 67.2426C25.4753 66.5693 26.099 65.94 26.5479 65.4533C26.7361 65.2492 26.9528 65.0036 27.0061 64.9441C27.1215 64.8155 27.0491 64.9044 26.9022 65.0384C26.7646 65.164 26.2643 65.6107 25.4463 65.9517C25.0083 66.1343 24.4867 66.284 23.8964 66.3453C23.3028 66.407 22.7342 66.3694 22.2136 66.2625L24.6292 54.5081ZM16.463 58.3312C14.1352 59.3217 11.7094 60.9161 10.0997 63.3151C8.32718 65.9566 7.71617 69.4129 9.23973 72.8241L20.1966 67.9305C20.3152 68.196 20.4147 68.6195 20.3594 69.114C20.3068 69.5843 20.141 69.887 20.0643 70.0013C19.9968 70.1019 20.0067 70.0487 20.206 69.8995C20.3997 69.7544 20.7124 69.5642 21.1615 69.3731L16.463 58.3312ZM9.237 72.818C10.7128 76.1322 13.6417 77.9917 16.1955 78.8943C18.8286 79.8249 21.8166 80.0396 24.6465 79.5013L22.4042 67.7127C21.5922 67.8671 20.7616 67.7807 20.1941 67.5801C19.9268 67.4856 19.8257 67.404 19.8395 67.4151C19.8601 67.4317 20.0442 67.5883 20.1993 67.9366L9.237 72.818ZM24.0163 71.4138C24.568 71.1185 25.066 70.8436 25.4253 70.6431C25.6057 70.5425 25.7529 70.4595 25.8565 70.4008C25.9084 70.3715 25.9495 70.3482 25.9785 70.3316C25.993 70.3234 26.0045 70.3168 26.0129 70.3121C26.017 70.3097 26.0204 70.3078 26.023 70.3063C26.0242 70.3056 26.0253 70.305 26.0262 70.3045C26.0266 70.3042 26.027 70.304 26.0273 70.3038C26.0275 70.3037 26.0277 70.3036 26.0278 70.3035C26.0279 70.3035 26.028 70.3035 26.028 70.3034C26.0281 70.3034 26.0282 70.3033 23.0489 65.0953C20.0696 59.8872 20.0697 59.8872 20.0698 59.8871C20.0698 59.8871 20.0699 59.8871 20.0699 59.887C20.07 59.887 20.0701 59.8869 20.0701 59.8869C20.0703 59.8868 20.0703 59.8868 20.0704 59.8868C20.0704 59.8867 20.0703 59.8868 20.0699 59.887C20.0693 59.8874 20.0678 59.8882 20.0656 59.8895C20.0611 59.8921 20.0536 59.8964 20.0431 59.9023C20.0222 59.9142 19.9898 59.9326 19.947 59.9569C19.8612 60.0054 19.7346 60.0767 19.5771 60.1646C19.2605 60.3413 18.8264 60.5808 18.3531 60.8342L24.0163 71.4138ZM23.0489 65.0953C17.9921 68.3246 17.9912 68.3232 17.9902 68.3218C17.9899 68.3213 17.989 68.3198 17.9884 68.3189C17.9872 68.317 17.986 68.3151 17.9848 68.3132C17.9825 68.3095 17.9801 68.3058 17.9778 68.3021C17.9732 68.2948 17.9687 68.2877 17.9643 68.2807C17.9556 68.2668 17.9474 68.2535 17.9397 68.2409C17.9242 68.2156 17.9105 68.1926 17.8982 68.1716C17.874 68.1301 17.8541 68.094 17.8373 68.0616C17.8074 68.004 17.7715 67.9287 17.7353 67.8272C17.7167 67.7751 17.4057 66.9726 17.7104 65.8067L29.3206 68.8404C29.9029 66.6117 29.3587 64.6951 29.0374 63.7946C28.8498 63.2688 28.6452 62.8357 28.4844 62.5263C28.4021 62.3681 28.3263 62.2327 28.2624 62.1232C28.2304 62.0683 28.2009 62.0192 28.1747 61.9764C28.1616 61.9549 28.1492 61.935 28.1377 61.9166C28.1319 61.9074 28.1264 61.8985 28.1211 61.8901C28.1184 61.8859 28.1158 61.8818 28.1132 61.8777C28.1119 61.8757 28.1107 61.8737 28.1094 61.8718C28.1088 61.8708 28.1079 61.8693 28.1075 61.8688C28.1066 61.8674 28.1057 61.8659 23.0489 65.0953ZM23.9597 73.3071C25.3607 73.2031 26.5088 72.7749 27.1494 72.4987C27.505 72.3454 27.8018 72.1958 28.0219 72.0775C28.1334 72.0175 28.2292 71.9634 28.3073 71.918C28.3465 71.8953 28.3816 71.8745 28.4122 71.8561C28.4276 71.8469 28.4419 71.8382 28.4551 71.8302C28.4617 71.8262 28.468 71.8223 28.4741 71.8186C28.4771 71.8167 28.48 71.8149 28.4829 71.8131C28.4844 71.8122 28.4858 71.8113 28.4872 71.8105C28.4879 71.81 28.489 71.8094 28.4893 71.8091C28.4904 71.8085 28.4914 71.8079 25.3334 66.7062C22.1754 61.6045 22.1764 61.6039 22.1774 61.6033C22.1778 61.6031 22.1788 61.6024 22.1795 61.602C22.1808 61.6012 22.1822 61.6003 22.1835 61.5995C22.1862 61.5978 22.1888 61.5962 22.1914 61.5946C22.1966 61.5914 22.2017 61.5883 22.2066 61.5854C22.2164 61.5794 22.2256 61.5738 22.2342 61.5686C22.2514 61.5583 22.2666 61.5494 22.2797 61.5417C22.3058 61.5266 22.3251 61.5159 22.3391 61.5084C22.364 61.495 22.3812 61.4867 22.3988 61.4791C22.4133 61.4729 22.4617 61.4524 22.5461 61.4283C22.6247 61.4059 22.8054 61.3597 23.0712 61.34L23.9597 73.3071ZM25.3334 66.7062C19.9926 69.4405 19.9913 69.4379 19.99 69.4354C19.9896 69.4345 19.9883 69.432 19.9874 69.4303C19.9857 69.4269 19.984 69.4236 19.9823 69.4203C19.979 69.4136 19.9756 69.407 19.9724 69.4006C19.9659 69.3876 19.9596 69.375 19.9536 69.3627C19.9415 69.3382 19.9303 69.3149 19.9198 69.2928C19.899 69.2487 19.8811 69.2087 19.8655 69.1723C19.8349 69.1007 19.8109 69.0372 19.7915 68.9782C19.7575 68.8749 19.7148 68.7171 19.7009 68.4995C19.6863 68.272 19.6997 67.9052 19.8514 67.4747C20.0151 67.0105 20.2758 66.6574 20.5111 66.4442L28.57 75.3354C31.2166 72.9365 31.8179 69.9457 31.6764 67.7338C31.6102 66.6974 31.3898 65.8344 31.1913 65.2306C31.0896 64.9213 30.9866 64.6588 30.8976 64.4506C30.8528 64.3459 30.8107 64.2533 30.7732 64.1737C30.7544 64.1338 30.7366 64.097 30.72 64.0634C30.7118 64.0465 30.7038 64.0305 30.6961 64.0153C30.6923 64.0077 30.6886 64.0002 30.6849 63.993C30.6831 63.9894 30.6813 63.9858 30.6795 63.9823C30.6786 63.9806 30.6772 63.978 30.6768 63.9771C30.6755 63.9745 30.6741 63.9719 25.3334 66.7062ZM20.5112 66.444C21.0465 65.9589 21.485 66.0126 21.5876 66.0287C21.6843 66.0438 21.98 66.1037 22.3762 66.3817C22.7879 66.6706 23.4642 67.3245 23.7648 68.4488L12.1722 71.549C13.3343 75.8945 17.3204 77.5073 19.7339 77.8846C22.4471 78.3089 25.892 77.7625 28.5698 75.3355L20.5112 66.444ZM23.7648 68.4488C23.8815 68.885 23.928 69.3774 23.8743 69.8901C23.8214 70.3954 23.6817 70.8228 23.5264 71.1536C23.3753 71.4753 23.2139 71.6975 23.1084 71.8259C23.003 71.954 22.926 72.0218 22.9093 72.0362C22.8916 72.0515 22.9645 71.9889 23.1906 71.8573C23.4588 71.7012 23.5845 71.6445 24.0123 71.4159L18.3571 60.8321C18.1582 60.9384 16.4452 61.7622 15.0626 62.9572C13.6913 64.1424 11.0004 67.1671 12.1722 71.549L23.7648 68.4488Z" fill="#4B5049" mask="url(#path-5-inside-1_222_239)"/>
</svg>
