<svg width="21" height="20" viewBox="0 0 21 20" fill="none" xmlns="http://www.w3.org/2000/svg">
<g clip-path="url(#clip0_108_543)">
<g clip-path="url(#clip1_108_543)">
<path fill-rule="evenodd" clip-rule="evenodd" d="M14.6667 3.32812H16.3333C16.5543 3.32812 16.7663 3.41592 16.9226 3.5722C17.0789 3.72848 17.1667 3.94044 17.1667 4.16146V15.8281C17.1667 16.0491 17.0789 16.2611 16.9226 16.4174C16.7663 16.5737 16.5543 16.6615 16.3333 16.6615H14.6667C14.4457 16.6615 14.2337 16.5737 14.0774 16.4174C13.9211 16.2611 13.8333 16.0491 13.8333 15.8281C13.8333 15.6071 13.9211 15.3951 14.0774 15.2389C14.2337 15.0826 14.4457 14.9948 14.6667 14.9948H15.5V4.99479H14.6667C14.4457 4.99479 14.2337 4.90699 14.0774 4.75071C13.9211 4.59443 13.8333 4.38247 13.8333 4.16146C13.8333 3.94044 13.9211 3.72848 14.0774 3.5722C14.2337 3.41592 14.4457 3.32812 14.6667 3.32812ZM9.16667 5.99479C9.25421 5.92913 9.35384 5.88136 9.45985 5.8542C9.56586 5.82704 9.67618 5.82102 9.78452 5.8365C9.89285 5.85198 9.99708 5.88864 10.0912 5.9444C10.1854 6.00015 10.2677 6.07391 10.3333 6.16146L12.85 9.51146C12.9543 9.65418 13.0105 9.82636 13.0105 10.0031C13.0105 10.1799 12.9543 10.3521 12.85 10.4948L10.5 13.8281C10.3726 14.0078 10.1792 14.1297 9.9621 14.1671C9.74505 14.2046 9.52198 14.1546 9.34167 14.0281L9.33583 14.024C9.24675 13.9604 9.17106 13.8799 9.11308 13.787C9.05511 13.6942 9.01599 13.5909 8.99796 13.4829C8.97993 13.375 8.98334 13.2645 9.008 13.1579C9.03266 13.0513 9.07808 12.9505 9.14167 12.8615L10.575 10.8281H3.83333C3.61232 10.8281 3.40036 10.7403 3.24408 10.584C3.0878 10.4278 3 10.2158 3 9.99479C3 9.77378 3.0878 9.56182 3.24408 9.40554C3.40036 9.24926 3.61232 9.16146 3.83333 9.16146H10.5L9 7.16146C8.93434 7.07391 8.88657 6.97429 8.85941 6.86828C8.83225 6.76226 8.82623 6.65194 8.84171 6.54361C8.85719 6.43527 8.89385 6.33105 8.9496 6.23688C9.00536 6.14271 9.07912 6.06045 9.16667 5.99479Z" fill="#565956"/>
</g>
</g>
<defs>
<clipPath id="clip0_108_543">
<rect width="20" height="20" fill="white" transform="translate(0.5 -0.00537109)"/>
</clipPath>
<clipPath id="clip1_108_543">
<rect width="20" height="20" fill="white" transform="translate(0.5 -0.00537109)"/>
</clipPath>
</defs>
</svg>
