<svg width="21" height="20" viewBox="0 0 21 20" fill="none" xmlns="http://www.w3.org/2000/svg">
<path fill-rule="evenodd" clip-rule="evenodd" d="M8.83333 9.1613C9.71739 9.1613 10.5652 8.81011 11.1904 8.18498C11.8155 7.55986 12.1667 6.71202 12.1667 5.82796C12.1667 4.94391 11.8155 4.09606 11.1904 3.47094C10.5652 2.84582 9.71739 2.49463 8.83333 2.49463C7.94928 2.49463 7.10143 2.84582 6.47631 3.47094C5.85119 4.09606 5.5 4.94391 5.5 5.82796C5.5 6.71202 5.85119 7.55986 6.47631 8.18498C7.10143 8.81011 7.94928 9.1613 8.83333 9.1613ZM18 4.99463H17.1667V4.1613C17.1667 3.94028 17.0789 3.72832 16.9226 3.57204C16.7663 3.41576 16.5543 3.32796 16.3333 3.32796C16.1123 3.32796 15.9004 3.41576 15.7441 3.57204C15.5878 3.72832 15.5 3.94028 15.5 4.1613V4.99463H14.6667C14.4457 4.99463 14.2337 5.08243 14.0774 5.23871C13.9211 5.39499 13.8333 5.60695 13.8333 5.82796C13.8333 6.04898 13.9211 6.26094 14.0774 6.41722C14.2337 6.5735 14.4457 6.6613 14.6667 6.6613H15.5V7.49463C15.5 7.71564 15.5878 7.9276 15.7441 8.08388C15.9004 8.24016 16.1123 8.32796 16.3333 8.32796C16.5543 8.32796 16.7663 8.24016 16.9226 8.08388C17.0789 7.9276 17.1667 7.71564 17.1667 7.49463V6.6613H18C18.221 6.6613 18.433 6.5735 18.5893 6.41722C18.7455 6.26094 18.8333 6.04898 18.8333 5.82796C18.8333 5.60695 18.7455 5.39499 18.5893 5.23871C18.433 5.08243 18.221 4.99463 18 4.99463ZM14.6667 16.6613C14.6667 16.8823 14.5789 17.0943 14.4226 17.2506C14.2663 17.4068 14.0543 17.4946 13.8333 17.4946H3.83333C3.61232 17.4946 3.40036 17.4068 3.24408 17.2506C3.0878 17.0943 3 16.8823 3 16.6613C3 15.8953 3.15088 15.1367 3.44404 14.429C3.73719 13.7212 4.16687 13.0782 4.70854 12.5365C5.25022 11.9948 5.89328 11.5652 6.60101 11.272C7.30875 10.9788 8.06729 10.828 8.83333 10.828C9.59938 10.828 10.3579 10.9788 11.0657 11.272C11.7734 11.5652 12.4164 11.9948 12.9581 12.5365C13.4998 13.0782 13.9295 13.7212 14.2226 14.429C14.5158 15.1367 14.6667 15.8953 14.6667 16.6613Z" fill="white"/>
</svg>
